<?xml version="1.0" encoding="UTF-8" standalone="no"?>
<!-- Generator: Adobe Illustrator 16.0.0, SVG Export Plug-In . SVG Version: 6.00 Build 0)  -->

<svg
   xmlns:dc="http://purl.org/dc/elements/1.1/"
   xmlns:cc="http://creativecommons.org/ns#"
   xmlns:rdf="http://www.w3.org/1999/02/22-rdf-syntax-ns#"
   xmlns:svg="http://www.w3.org/2000/svg"
   xmlns="http://www.w3.org/2000/svg"
   xmlns:sodipodi="http://sodipodi.sourceforge.net/DTD/sodipodi-0.dtd"
   xmlns:inkscape="http://www.inkscape.org/namespaces/inkscape"
   version="1.1"
   id="Layer_1"
   x="0px"
   y="0px"
   width="8px"
   height="8px"
   viewBox="0 0 8 8"
   enable-background="new 0 0 8 8"
   xml:space="preserve"
   inkscape:version="0.91 r13725"
   sodipodi:docname="help.svg"><metadata
     id="metadata11"><rdf:RDF><cc:Work
         rdf:about=""><dc:format>image/svg+xml</dc:format><dc:type
           rdf:resource="http://purl.org/dc/dcmitype/StillImage" /></cc:Work></rdf:RDF></metadata><defs
     id="defs9" /><sodipodi:namedview
     pagecolor="#ffffff"
     bordercolor="#666666"
     borderopacity="1"
     objecttolerance="10"
     gridtolerance="10"
     guidetolerance="10"
     inkscape:pageopacity="0"
     inkscape:pageshadow="2"
     inkscape:window-width="1280"
     inkscape:window-height="698"
     id="namedview7"
     showgrid="false"
     inkscape:zoom="41.7193"
     inkscape:cx="8.5341779"
     inkscape:cy="5.0855859"
     inkscape:window-x="0"
     inkscape:window-y="1"
     inkscape:window-maximized="1"
     inkscape:current-layer="Layer_1" /><rect
     x="2.989"
     y="6.39"
     width="2.023"
     height="1.61"
     id="rect5" /><path
     inkscape:connector-curvature="0"
     id="path4144"
     style="font-style:normal;font-variant:normal;font-weight:bold;font-stretch:normal;font-size:medium;line-height:125%;font-family:sans-serif;-inkscape-font-specification:'sans-serif Bold';letter-spacing:0px;word-spacing:0px;fill:#000000;fill-opacity:1;stroke:none;stroke-width:1px;stroke-linecap:butt;stroke-linejoin:miter;stroke-opacity:1"
     d="m 5.0323508,5.6104583 -2.0536668,0 0,-0.2705712 c 0,-0.3018616 0.062578,-0.5687516 0.1877313,-0.8006697 C 3.2915696,4.3036181 3.5551519,4.0054376 3.9571625,3.6446761 L 4.3212475,3.3244082 C 4.5374225,3.1329837 4.6948134,2.9526029 4.79342,2.783266 4.8958191,2.6139289 4.9470185,2.4445918 4.9470185,2.2752548 4.9470185,2.017568 4.8559994,1.8169404 4.6739552,1.6733721 4.491912,1.5261224 4.237811,1.4524977 3.9116519,1.4524977 c -0.3071968,0 -0.639045,0.06258 -0.9955449,0.1877432 -0.3565,0.1214809 -0.7281701,0.3037023 -1.1150105,0.5466642 l 0,-1.73386408 c 0.4588989,-0.1546121 0.877976,-0.2687305 1.257231,-0.3423553 0.3792552,-0.0736248 0.7452366,-0.1104371986 1.0979441,-0.1104371986 0.925383,0 1.6307973,0.1840619986 2.1162443,0.5521859986 0.485447,0.3644428 0.72817,0.89822258 0.72817,1.60133938 0,0.3607616 -0.073955,0.6847106 -0.2218648,0.9718474 C 6.6309115,3.4090768 6.3787071,3.7146197 6.0222074,4.0422501 L 5.6581217,4.356996 C 5.4002286,4.585233 5.2314599,4.7692951 5.1518167,4.9091821 5.072177,5.0453879 5.0323508,5.1963188 5.0323508,5.3619746 Z"
     sodipodi:nodetypes="ccsccccscscccsscsccccsc" /></svg>